<svg class="dosecalc__logo" xmlns="http://www.w3.org/2000/svg" viewBox="0 0 106.5 106.4"><defs><style>  .cls-1{fill:#fff;}</style></defs><title>DosageCalcLogo</title><g data-name="Insulin Pen"><rect class="cls-1" x="86" y="5.4" width="19.6" height="10.4" transform="translate(35.6 -64.6)rotate(45)"/><path class="cls-1" d="M83.9 8.7 9.7 82.9 13 86.2 6.7 92.5l3 3-4.9 4.9-4.7 6 6-4.7L11 96.8l3 3 6.3-6.3 3.3 3.3L97.8 22.6ZM69.7 45.5 29 86.2a5.1 5.1 0 0 1-7.2 0l-1.5-1.5a5.1 5.1 0 0 1 0-7.2l1.3-1.3L26 80.5l1.1-1.1L22.7 75l2.9-2.9L30 76.5 31 75.5 26.6 71l2.9-2.9 4.4 4.4L35 71.5l-4.4-4.4 2.9-2.9 4.4 4.4L39 67.5l-4.4-4.4 2.9-2.9 4.4 4.4 1.1-1.1-4.4-4.4 2.9-2.9 4.4 4.4 1.1-1.1-4.4-4.4 2.9-2.9 4.4 4.4 1.1-1.1-4.4-4.4 2.9-2.9 4.4 4.4 1.1-1.1-4.4-4.4 2.9-2.9 4.4 4.4 1.1-1.1-4.4-4.4 2.9-2.9 4.4 4.4 1.1-1.1-4.4-4.4 2.6-2.6a5.1 5.1 0 0 1 7.2 0l1.6 1.6A5.1 5.1 0 0 1 69.7 45.5ZM87.5 23.2 77.1 33.6a3 3 0 1 1-4.3-4.3L83.2 19a3 3 0 0 1 3.7-0.5l-5.2 5.2 1.1 1.1L88 19.6A3.1 3.1 0 0 1 87.5 23.2Z"/></g></svg>