<svg xmlns="http://www.w3.org/2000/svg" class="top__logo" viewBox="0 0 392 111"><defs><style type="text/css">  .yellow2{fill:#fcc90a;}.white{fill:#fff;}.blue{fill:#05baf0;}.green{fill:#3d994a;}</style></defs><title>  Carb Counter+SVG</title><path d="M122 43a15 15 0 0 0 12-6l6 7q-8 9-18 9t-17-7a22 22 0 0 1-7-16A22 22 0 0 1 105 13 23 23 0 0 1 122 6a24 24 0 0 1 18 8l-6 7a15 15 0 0 0-12-6 14 14 0 0 0-10 4 13 13 0 0 0-4 10 14 14 0 0 0 4 10A12 12 0 0 0 122 43Z"/><path d="M176 52h-9V48a11 11 0 0 1-9 5 14 14 0 0 1-9-3A11 11 0 0 1 145 41q0-5 4-8t11-3h7v0q0-5-6-5a16 16 0 0 0-5 1 17 17 0 0 0-5 2L146 22a26 26 0 0 1 15-5A16 16 0 0 1 172 20q4 3 4 10Zm-10-13V37h-6q-6 0-6 4a3 3 0 0 0 1 3 7 7 0 0 0 4 1 7 7 0 0 0 5-2A5 5 0 0 0 166 39Z"/><path d="M203 26a7 7 0 0 0-6 3 14 14 0 0 0-2 8V52h-10V18h10v5A16 16 0 0 1 199 19a13 13 0 0 1 6-2l0 9Z"/><path d="M231 17A15 15 0 0 1 242 22a17 17 0 0 1 5 13 18 18 0 0 1-5 13q-5 5-11 5a12 12 0 0 1-10-5v5h-10V5h10v17A13 13 0 0 1 231 17ZM221 35a10 10 0 0 0 2 7 7 7 0 0 0 6 3 8 8 0 0 0 6-3 10 10 0 0 0 3-7 10 10 0 0 0-2-7 7 7 0 0 0-6-3 7 7 0 0 0-6 3A10 10 0 0 0 221 35Z"/><path d="M122 101a16 16 0 0 0 7-1A23 23 0 0 0 135 96l5 5a22 22 0 0 1-17 8A23 23 0 0 1 106 102a22 22 0 0 1-7-17 22 22 0 0 1 7-17q7-7 17-7a23 23 0 0 1 17 8l-5 5a21 21 0 0 0-6-4 17 17 0 0 0-7-1A16 16 0 0 0 112 74a15 15 0 0 0-5 11 15 15 0 0 0 5 11A15 15 0 0 0 122 101Z"/><path d="M176 103a19 19 0 0 1-26 0 18 18 0 0 1 0-25 19 19 0 0 1 26 0 18 18 0 0 1 0 25ZM155 99a11 11 0 0 0 15 0 12 12 0 0 0 0-16A11 11 0 0 0 155 83a12 12 0 0 0 0 16Z"/><path d="M213 92V74h7v34h-7v-6a13 13 0 0 1-21 3q-4-4-4-10V74h7V93q0 9 8 9a9 9 0 0 0 6-2Q213 97 213 92Z"/><path d="M237 90v18h-7V74h7v6A13 13 0 0 1 258 77q4 4 4 10v21h-7V89q0-9-8-9a9 9 0 0 0-6 2Q237 85 237 90Z"/><path d="M280 80V97a6 6 0 0 0 1 4 5 5 0 0 0 4 1 6 6 0 0 0 4-2l3 5a12 12 0 0 1-8 3 11 11 0 0 1-8-3 11 11 0 0 1-3-9V80h-4V74h4V63h7V74h9v6Z"/><path d="M329 94H303a8 8 0 0 0 3 6 12 12 0 0 0 7 2q6 0 10-4l4 4q-5 6-14 6a17 17 0 0 1-12-5q-5-5-5-13t5-13A17 17 0 0 1 313 74a17 17 0 0 1 12 4q5 4 5 12Zm-27-6h20A8 8 0 0 0 320 82a10 10 0 0 0-7-2 11 11 0 0 0-7 2A8 8 0 0 0 303 89Z"/><path d="M355 81q-5 0-8 3t-3 9v15h-7V74h7v7a15 15 0 0 1 5-5 11 11 0 0 1 6-2l0 7Z"/><polygon points="392 73 392 81 381 81 381 92 373 92 373 81 362 81 362 73 373 73 373 62 381 62 381 73 392 73"/><polygon class="yellow2" points="92 56 59 74 27 56 27 19 59 0 92 19 92 56"/><rect class="white" x="46" y="40" width="27" height="8" transform="translate(118.96 89.01)rotate(180)"/><rect class="white" x="46" y="26" width="27" height="8" transform="translate(118.96 59.2)rotate(180)"/><polygon class="blue" points="46 99 24 111 3 99 3 74 24 61 46 74 46 99"/><polygon class="white" points="22 77 27 77 27 83 33 83 33 89 27 89 27 95 22 95 22 89 15 89 15 83 22 83 22 77"/><polygon class="green" points="21 56 11 62 0 56 0 43 11 37 21 43 21 56"/><rect class="white" x="6" y="48" width="9" height="3"/></svg>