<svg class="settings__logo" xmlns="http://www.w3.org/2000/svg" viewBox="0 0 106.5 106.4"><defs><style>.cls-1{fill:#fff;}</style></defs><title>SettingsLogo</title><g id="Settings"><g id="Gears"><path id="LargeGear" class="cls-1" d="M59.3 52.1a24.1 24.1 0 0 0-4.8-4.8l1.1-15.6-12.8-3.4-6.9 14a24.7 24.7 0 0 0-6.6 1.8l-13-8.7-9.2 9.3 8.7 13a24.7 24.7 0 0 0-1.8 6.6L0 71.2l3.4 12.6 15.6-1a24.1 24.1 0 0 0 4.8 4.8l-1.1 15.6 12.7 3.4 6.9-14a25 25 0 0 0 6.6-1.8l13 8.7 9.3-9.3-8.7-13a25 25 0 0 0 1.8-6.6l14-6.9-3.4-12.6h-.3zM52 80.3a18.2 18.2 0 1 1 2.3-22.9A18.4 18.4 0 0 1 52 80.3z"/><path id="SmallGear" class="cls-1" d="M90.4 39.7a16.1 16.1 0 0 0 3.3-3.2l10.4.9 2.4-8.4-9.2-4.8a16.4 16.4 0 0 0-1.1-4.4l6-8.5L96 5.1l-8.7 5.6a16.4 16.4 0 0 0-4.4-1.3L78.5 0l-8.4 2.1.5 10.4a16.1 16.1 0 0 0-3.3 3.2l-10.4-.9-2.4 8.4 9.2 4.8a16.6 16.6 0 0 0 1.1 4.4l-6 8.5 6 6.3 8.7-5.6a16.6 16.6 0 0 0 4.5 1.1l4.4 9.4 8.5-2.1v-.2zm-18.6-5.2a12.1 12.1 0 1 1 15.3 1.8 12.2 12.2 0 0 1-15.3-1.8z"/></g></g></svg>