<?xml version="1.0" standalone="no"?>
<!DOCTYPE svg PUBLIC "-//W3C//DTD SVG 20010904//EN"
 "http://www.w3.org/TR/2001/REC-SVG-20010904/DTD/svg10.dtd">
<svg version="1.0" xmlns="http://www.w3.org/2000/svg"
 width="16.000000pt" height="16.000000pt" viewBox="0 0 16.000000 16.000000"
 preserveAspectRatio="xMidYMid meet">
<metadata>
Created by potrace 1.11, written by Peter Selinger 2001-2013
</metadata>
<g transform="translate(0.000000,16.000000) scale(0.002286,-0.002286)"
fill="#000000" stroke="none">
<path d="M3348 6417 l-1008 -582 1 -1175 0 -1175 1005 -580 c554 -319 1012
-580 1019 -580 6 0 465 261 1018 580 l1006 580 0 1175 0 1175 -1005 580 c-553
319 -1011 581 -1017 582 -7 1 -465 -260 -1019 -580z m1872 -1282 l0 -255 -855
0 -855 0 0 255 0 255 855 0 855 0 0 -255z m0 -945 l0 -250 -855 0 -855 0 0
250 0 250 855 0 855 0 0 -250z"/>
<path d="M943 4468 l-333 -193 0 -395 0 -395 336 -194 c259 -149 340 -191 354
-185 10 5 162 92 339 194 l321 185 0 395 0 395 -334 193 c-183 105 -337 192
-342 192 -5 0 -159 -87 -341 -192z m627 -578 l0 -80 -285 0 -285 0 0 80 0 80
285 0 285 0 0 -80z"/>
<path d="M1465 2730 l-670 -388 0 -782 0 -782 674 -389 c371 -215 680 -388
686 -387 6 2 311 176 678 388 l667 385 0 785 0 785 -665 383 c-366 211 -673
385 -682 387 -10 2 -319 -171 -688 -385z m855 -790 l0 -200 200 0 200 0 0
-170 0 -170 -200 0 -200 0 0 -200 0 -200 -170 0 -170 0 0 200 0 200 -200 0
-200 0 0 170 0 170 200 0 200 0 0 200 0 200 170 0 170 0 0 -200z"/>
</g>
</svg>
